<svg xmlns="http://www.w3.org/2000/svg" xmlns:xlink="http://www.w3.org/1999/xlink" width="34.286" height="48" viewBox="0 0 34.286 48">
  <defs>
    <clipPath id="clip-path">
      <rect id="Rectangle_13637" data-name="Rectangle 13637" width="34.286" height="48" fill="#fff"/>
    </clipPath>
  </defs>
  <g id="Group_54436" data-name="Group 54436" clip-path="url(#clip-path)">
    <path id="Path_26089" data-name="Path 26089" d="M24.615,47.938H3.046c-.571,0-1.128,0-1.486-.6a2.01,2.01,0,0,1-.19-1.121V14.357a12.4,12.4,0,0,1,0-2.437c.282-1.292,1.874-1,2.8-1h27.07a2.308,2.308,0,0,1,.975.106c.716.325.762,1.04.762,1.73V30.132a.723.723,0,0,0,.216.45.633.633,0,0,0,.886,0,.723.723,0,0,0,.216-.45V12.513a3.018,3.018,0,0,0-.308-1.54A2.787,2.787,0,0,0,32.958,9.84a3.05,3.05,0,0,0-1.577-.317H2.7a2.5,2.5,0,0,0-1.351.336,2.718,2.718,0,0,0-1,1.02A3.481,3.481,0,0,0,0,12.594V44.908c0,1.113-.16,2.437.5,3.339.945,1.357,2.568,1.1,3.954,1.1h20.16a.65.65,0,0,0,.422-.23.742.742,0,0,0,0-.944.65.65,0,0,0-.422-.23Z" transform="translate(0.003 -1.359)" fill="#47bbd0"/>
    <path id="Path_26090" data-name="Path 26090" d="M37.558,52.729a1.393,1.393,0,0,1-.218.712,1.27,1.27,0,0,1-.544.474,1.759,1.759,0,0,1-.762.106H32.728a.65.65,0,0,0-.422.23.742.742,0,0,0,0,.944.65.65,0,0,0,.422.23h2.194a5.24,5.24,0,0,0,2.621-.325,2.633,2.633,0,0,0,.97-.992,2.857,2.857,0,0,0,.363-1.38.723.723,0,0,0-.216-.45.633.633,0,0,0-.886,0,.724.724,0,0,0-.216.45Z" transform="translate(-4.591 -7.443)" fill="#47bbd0"/>
    <path id="Path_26091" data-name="Path 26091" d="M38.462,37.8v7.961a.723.723,0,0,0,.216.45.632.632,0,0,0,.886,0,.723.723,0,0,0,.216-.45V37.8a.723.723,0,0,0-.216-.45.632.632,0,0,0-.886,0,.723.723,0,0,0-.216.45Z" transform="translate(-5.495 -5.31)" fill="#47bbd0"/>
    <path id="Path_26092" data-name="Path 26092" d="M18.214,23.762c5.946,0,10.766-5.139,10.766-11.478S24.16.805,18.214.805,7.449,5.944,7.449,12.283,12.269,23.762,18.214,23.762Z" transform="translate(-1.064 -0.115)" fill="#fff"/>
    <path id="Path_26093" data-name="Path 26093" d="M28.214,12.192a11.27,11.27,0,0,1-1.836,6.192,10.208,10.208,0,0,1-4.841,3.941,9.509,9.509,0,0,1-6.086.258,10.063,10.063,0,0,1-5.119-3.519,11.182,11.182,0,0,1-2.273-6.03A11.356,11.356,0,0,1,9.45,6.707,10.359,10.359,0,0,1,14,2.383a9.538,9.538,0,0,1,6.054-.751,10.119,10.119,0,0,1,5.831,3.742,11.329,11.329,0,0,1,2.329,6.818.724.724,0,0,0,.216.45.633.633,0,0,0,.886,0,.723.723,0,0,0,.216-.45A12.744,12.744,0,0,0,27.444,5.22,11.545,11.545,0,0,0,21.986.781a10.757,10.757,0,0,0-6.859-.3A11.376,11.376,0,0,0,9.342,4.418,12.759,12.759,0,0,0,6.761,11.28a12.957,12.957,0,0,0,1.575,7.2,11.807,11.807,0,0,0,5.208,4.829,10.893,10.893,0,0,0,6.861.8,11.445,11.445,0,0,0,6.527-4.249,12.8,12.8,0,0,0,2.6-7.668.723.723,0,0,0-.216-.45.633.633,0,0,0-.886,0,.724.724,0,0,0-.216.45Z" transform="translate(-0.961 -0.008)" fill="#47bbd0"/>
    <path id="Path_26094" data-name="Path 26094" d="M18.518,22c4.852,0,8.785-4.193,8.785-9.366S23.37,3.27,18.518,3.27,9.733,7.463,9.733,12.636,13.666,22,18.518,22Z" transform="translate(-1.39 -0.467)" fill="#47bbd0" opacity="0.16"/>
    <path id="Path_26095" data-name="Path 26095" d="M22.243,11.152a3.541,3.541,0,0,1-.321,1.5,3.319,3.319,0,0,1-.913,1.187,3.057,3.057,0,0,1-1.313.629,2.957,2.957,0,0,1-1.439-.06,3.1,3.1,0,0,1-1.263-.737,3.367,3.367,0,0,1-.823-1.26,3.558,3.558,0,0,1-.21-1.519,3.511,3.511,0,0,1,.446-1.46,3.2,3.2,0,0,1,1.527-1.394,2.957,2.957,0,0,1,2.007-.12A3.14,3.14,0,0,1,21.6,9.12a3.494,3.494,0,0,1,.638,2.032.723.723,0,0,0,.216.45.633.633,0,0,0,.886,0,.724.724,0,0,0,.216-.45,5.1,5.1,0,0,0-.825-2.706,4.628,4.628,0,0,0-2.1-1.754,4.2,4.2,0,0,0-2.68-.1,4.442,4.442,0,0,0-2.25,1.555A4.928,4.928,0,0,0,14.7,10.8a5.008,5.008,0,0,0,.6,2.786,4.556,4.556,0,0,0,2.17,1.976,4.2,4.2,0,0,0,2.849.172,4.465,4.465,0,0,0,2.364-1.7,4.969,4.969,0,0,0,.915-2.881.747.747,0,0,0-.2-.51.649.649,0,0,0-.959.006.748.748,0,0,0-.2.512Z" transform="translate(-2.098 -0.917)" fill="#47bbd0"/>
    <path id="Path_26096" data-name="Path 26096" d="M16.942,16.141V16.3c-.053.171.053-.122,0,0a5.067,5.067,0,0,1-.358.674l-.069.1h0l-.175.219a4.508,4.508,0,0,1-.419.447l-.122.106-.053.049c-.069.057.1-.073,0,0s-.19.154-.3.219a4.422,4.422,0,0,1-.648.382h-.1l-.251.1a4.925,4.925,0,0,1-.488.162c-.168.049-.35.1-.533.138l-.526.089a.659.659,0,0,0-.457.211.713.713,0,0,0,0,.982.651.651,0,0,0,.462.212,6.191,6.191,0,0,0,5.128-3.322,4.044,4.044,0,0,0,.206-.536.746.746,0,0,0-.093-.5.668.668,0,0,0-.384-.3.626.626,0,0,0-.476.051.693.693,0,0,0-.32.379Z" transform="translate(-1.75 -2.242)" fill="#47bbd0"/>
    <path id="Path_26097" data-name="Path 26097" d="M20.814,16.365a4.039,4.039,0,0,0,.564,1.194,5.611,5.611,0,0,0,2.286,1.982,7.967,7.967,0,0,0,2.469.682.635.635,0,0,0,.463-.2.723.723,0,0,0,.192-.494.755.755,0,0,0-.2-.49.667.667,0,0,0-.458-.216,6.841,6.841,0,0,1-.93-.187,6.507,6.507,0,0,1-.869-.3H24.25l-.175-.089c-.114-.057-.221-.122-.328-.187l-.3-.2-.137-.106c-.13-.1.069.065-.053,0a4.77,4.77,0,0,1-.45-.439l-.183-.211-.076-.106c-.091-.114.076.114,0,0a4.951,4.951,0,0,1-.4-.715l-.038-.073c-.053-.122.061.171,0,.073a.574.574,0,0,0-.038-.106.488.488,0,0,0,0-.1.694.694,0,0,0-.309-.422.62.62,0,0,0-.5-.065.664.664,0,0,0-.4.33.741.741,0,0,0-.061.532Z" transform="translate(-2.97 -2.223)" fill="#47bbd0"/>
    <path id="Path_26098" data-name="Path 26098" d="M9.679,41.067H27.2a.65.65,0,0,0,.422-.23.742.742,0,0,0,0-.944.65.65,0,0,0-.422-.23H9.679a.65.65,0,0,0-.422.23.742.742,0,0,0,0,.944.65.65,0,0,0,.422.23Z" transform="translate(-1.298 -5.666)" fill="#47bbd0"/>
    <path id="Path_26099" data-name="Path 26099" d="M9.679,47.71H27.2a.65.65,0,0,0,.422-.23.742.742,0,0,0,0-.944.65.65,0,0,0-.422-.23H9.679a.65.65,0,0,0-.422.23.742.742,0,0,0,0,.944A.65.65,0,0,0,9.679,47.71Z" transform="translate(-1.298 -6.615)" fill="#47bbd0"/>
    <path id="Path_26100" data-name="Path 26100" d="M9.679,34.433H27.2a.65.65,0,0,0,.422-.23.742.742,0,0,0,0-.944.65.65,0,0,0-.422-.23H9.679a.65.65,0,0,0-.422.23.742.742,0,0,0,0,.944.65.65,0,0,0,.422.23Z" transform="translate(-1.298 -4.718)" fill="#47bbd0"/>
  </g>
</svg>
