<svg xmlns="http://www.w3.org/2000/svg" width="18" height="18" viewBox="0 0 18 18">
  <g id="Group_52866" data-name="Group 52866" transform="translate(-696 -556)">
    <circle id="Ellipse_610" data-name="Ellipse 610" cx="9" cy="9" r="9" transform="translate(696 556)" fill="rgba(253,227,200,0)"/>
    <g id="Group_52865" data-name="Group 52865" transform="translate(400.025 -9.382)">
      <g id="Path_24243" data-name="Path 24243" transform="translate(17955 6531)" fill="none">
        <path d="M-17650.242-5965.618a10.787,10.787,0,0,1-3.24,2.339,15.188,15.188,0,0,1-4.316,1.018,16.148,16.148,0,0,0,1.334,8.213c1.889,3.661,6.223,6.429,6.223,6.429s4.607-2.769,6.6-6.429a15.16,15.16,0,0,0,1.371-8.213,16.33,16.33,0,0,1-4.432-1.018A13.051,13.051,0,0,1-17650.242-5965.618Z" stroke="none"/>
        <path d="M -17650.1875 -5963.61572265625 C -17650.849609375 -5963.0634765625 -17651.779296875 -5962.392578125 -17652.873046875 -5961.9072265625 C -17654.060546875 -5961.38037109375 -17655.404296875 -5961.0869140625 -17656.37109375 -5960.9296875 C -17656.392578125 -5959.4716796875 -17656.244140625 -5956.8916015625 -17655.130859375 -5954.73486328125 C -17653.912109375 -5952.37060546875 -17651.46875 -5950.359375 -17650.21484375 -5949.43115234375 C -17648.890625 -5950.3515625 -17646.2578125 -5952.37939453125 -17644.958984375 -5954.763671875 C -17643.791015625 -5956.91064453125 -17643.650390625 -5959.47998046875 -17643.68359375 -5960.9248046875 C -17644.662109375 -5961.080078125 -17646.037109375 -5961.37109375 -17647.283203125 -5961.89599609375 C -17648.447265625 -5962.3857421875 -17649.46875 -5963.0673828125 -17650.1875 -5963.61572265625 M -17650.2421875 -5965.61767578125 C -17650.2421875 -5965.61767578125 -17648.693359375 -5964.1171875 -17646.701171875 -5963.2783203125 C -17644.708984375 -5962.43896484375 -17642.26953125 -5962.26025390625 -17642.26953125 -5962.26025390625 C -17642.26953125 -5962.26025390625 -17641.6484375 -5957.7080078125 -17643.640625 -5954.046875 C -17645.634765625 -5950.38623046875 -17650.2421875 -5947.61767578125 -17650.2421875 -5947.61767578125 C -17650.2421875 -5947.61767578125 -17654.576171875 -5950.38623046875 -17656.46484375 -5954.046875 C -17658.3515625 -5957.7080078125 -17657.798828125 -5962.26025390625 -17657.798828125 -5962.26025390625 C -17657.798828125 -5962.26025390625 -17655.373046875 -5962.43896484375 -17653.482421875 -5963.2783203125 C -17651.591796875 -5964.1171875 -17650.2421875 -5965.61767578125 -17650.2421875 -5965.61767578125 Z" stroke="none" fill="rgba(32,39,43,0.77)"/>
      </g>
      <path id="Path_24244" data-name="Path 24244" d="M-17710.426-5989.129l2.93,2.93,5.371-5.369" transform="translate(18011.551 6563.019)" fill="none" stroke="rgba(32,39,43,0.77)" stroke-width="1.5"/>
    </g>
  </g>
</svg>
