<svg id="Group_54656" data-name="Group 54656" xmlns="http://www.w3.org/2000/svg" width="48" height="48" viewBox="0 0 48 48">
  <rect id="Rectangle_13736" data-name="Rectangle 13736" width="48" height="48" rx="24" fill="#1caf4d"/>
  <path id="Icon_awesome-crown" data-name="Icon awesome-crown" d="M19.8,16.8H4.2a.6.6,0,0,0-.6.6v1.2a.6.6,0,0,0,.6.6H19.8a.6.6,0,0,0,.6-.6V17.4A.6.6,0,0,0,19.8,16.8Zm2.4-12a1.8,1.8,0,0,0-1.8,1.8,1.764,1.764,0,0,0,.165.743L17.85,8.97a1.2,1.2,0,0,1-1.657-.435L13.136,3.188a1.8,1.8,0,1,0-2.273,0L7.808,8.535A1.2,1.2,0,0,1,6.15,8.97L3.439,7.342A1.8,1.8,0,1,0,1.8,8.4a1.838,1.838,0,0,0,.289-.03L4.8,15.6H19.2l2.711-7.23a1.838,1.838,0,0,0,.289.03,1.8,1.8,0,0,0,0-3.6Z" transform="translate(12.268 14.4)" fill="#fff"/>
</svg>
