<svg xmlns="http://www.w3.org/2000/svg" width="18" height="18" viewBox="0 0 18 18">
  <g id="Icon_feather-info" data-name="Icon feather-info" transform="translate(-3 -3)">
    <g id="Path_24248" data-name="Path 24248" fill="none">
      <path d="M21,12a9,9,0,1,1-9-9A9,9,0,0,1,21,12Z" stroke="none"/>
      <path d="M 12.00000095367432 4.500001907348633 C 7.864490509033203 4.500001907348633 4.500001907348633 7.864490509033203 4.500001907348633 12.00000095367432 C 4.500001907348633 16.13551139831543 7.864490509033203 19.5 12.00000095367432 19.5 C 16.13551139831543 19.5 19.5 16.13551139831543 19.5 12.00000095367432 C 19.5 7.864490509033203 16.13551139831543 4.500001907348633 12.00000095367432 4.500001907348633 M 12.00000095367432 3.000001907348633 C 16.97056198120117 3.000001907348633 21 7.029441833496094 21 12.00000095367432 C 21 16.97056198120117 16.97056198120117 21 12.00000095367432 21 C 7.029441833496094 21 3.000001907348633 16.97056198120117 3.000001907348633 12.00000095367432 C 3.000001907348633 7.029441833496094 7.029441833496094 3.000001907348633 12.00000095367432 3.000001907348633 Z" stroke="none" fill="rgba(32,39,43,0.77)"/>
    </g>
    <path id="Path_24249" data-name="Path 24249" d="M18,22.925V18" transform="translate(-6 -6.444)" fill="none" stroke="rgba(32,39,43,0.77)" stroke-width="1.5"/>
    <path id="Path_24250" data-name="Path 24250" d="M18,12h0" transform="translate(-6 -3.6)" fill="none" stroke="rgba(32,39,43,0.77)" stroke-width="1.5"/>
    <path id="Path_24251" data-name="Path 24251" d="M18,19.85V18" transform="translate(-6 -9.6)" fill="none" stroke="rgba(32,39,43,0.77)" stroke-width="1.5"/>
  </g>
</svg>
