<svg id="Group_7345" data-name="Group 7345" xmlns="http://www.w3.org/2000/svg" width="181" height="179" viewBox="0 0 181 179">
  <path id="Path_2973" data-name="Path 2973" d="M147.654,23.237c18.8,7.86,32.7,29.393,33.326,50.619.59,21.263-12.09,42.173-25.554,60.193-13.425,17.98-22.793,34.088-40.264,40.7-21.427,3.93-52.439,8.41-71.046-3.087-14.877-9.192-10.844-28.231-20.777-44.648C13.408,110.636,2.576,94.414.417,75.066c-2.2-19.309,4.318-41.822,19.274-50.344S58,21.674,81.55,21.479s47.262-6.058,66.1,1.758Z" transform="translate(0)" fill="#47bbd0" opacity="0.1"/>
  <path id="Path_2974" data-name="Path 2974" d="M70.617,8.584H.7V31.038h69.92V8.584Z" transform="translate(0 0)" fill="#47bbd0"/>
  <path id="Path_2975" data-name="Path 2975" d="M11.976,27.11a7.3,7.3,0,1,0-7.33-7.3,7.315,7.315,0,0,0,7.33,7.3Zm53.566-14.6H24.381V15.32H65.542ZM38.477,18.689h-14.1v2.245h14.1V18.69Z" transform="translate(0 0)" fill="#fff"/>
  <path id="Path_2976" data-name="Path 2976" d="M70.8,35.136H12.733v18.52H70.8V35.136Z" transform="translate(0 0)" fill="#f3f3f3"/>
  <path id="Path_2977" data-name="Path 2977" d="M22.208,50.282a6.058,6.058,0,1,0-6.085-6.058A6.072,6.072,0,0,0,22.208,50.282Zm44.333-11.77H32.465v2.077H66.541Zm-22.6,4.846H32.465v2.077H43.94Z" transform="translate(0 0)" fill="#dfdfdf"/>
  <path id="Path_2978" data-name="Path 2978" d="M70.8,57.811H12.733v18.52H70.8V57.811Z" transform="translate(0 0)" fill="#f3f3f3"/>
  <path id="Path_2979" data-name="Path 2979" d="M22.208,72.956A6.058,6.058,0,1,0,16.123,66.9,6.072,6.072,0,0,0,22.208,72.956Zm44.333-11.77H32.465v2.077H66.541Zm-22.6,4.846H32.465V68.11H43.94Z" transform="translate(0 0)" fill="#dfdfdf"/>
  <path id="Path_2980" data-name="Path 2980" d="M67.15,66.12c-.348,1.21-5.912,30.462,3.65,57.637,1.565.346,1.392-3.981,1.392-3.981l-1.74-37.214.87-14.02L67.15,66.119Z" transform="translate(0 0)" fill="#de8e68"/>
  <path id="Path_2981" data-name="Path 2981" d="M94.017,178.115H75.842s-5.215-62.147-5.215-63.359c1.043,1.039.869,1.385,5.215,2.6,2.608,2.769,21.037,48.81,21.037,48.81Z" transform="translate(0 0)" fill="#56cad8"/>
  <path id="Path_2982" data-name="Path 2982" d="M84.85,44.137c8.124,2.314,1.709,27.02-1.3,29.09s-17.107-3.755-18.244-6.376,8.04-25.99,19.543-22.714Z" transform="translate(0 0)" fill="#fcc486"/>
  <path id="Path_2983" data-name="Path 2983" d="M92.185,37.56c25.9,0,26.426,74.081,22.775,77.2s-41.03,6.058-44.333,0S64.02,37.56,92.185,37.56Z" transform="translate(0 0)" fill="#fed385"/>
  <path id="Path_2984" data-name="Path 2984" d="M101.573,42.58c6.781-5.02,22.6,15.058,22.428,18.693s-13.387,11.25-16.169,10.558-15.86-22.145-6.259-29.252Z" transform="translate(0 0)" fill="#fed892"/>
  <path id="Path_2985" data-name="Path 2985" d="M121.567,61.965c6.433,10.558,8.171,24.578,8.171,27,0,6.577-3.3,9.865-5.389,9.865-8.346,0-35.815-21.116-37.727-22.847s3.65-6.923,4.52-6.058,10.779,7.1,25.209,13.328c-2.086-2.6-8.171-10.385-8.345-12.809s13.561-8.48,13.561-8.48Z" transform="translate(0 0)" fill="#de8e68"/>
  <path id="Path_2986" data-name="Path 2986" d="M82.879,56.91,72.018,58.542l2.809,18.535,10.861-1.632L82.878,56.91Z" transform="translate(0 0)" fill="#20272b"/>
  <path id="Path_2987" data-name="Path 2987" d="M90.79,73.865c1.3-2.235-.18-5.5-3.3-7.293s-6.7-1.433-7.993.8.18,5.5,3.3,7.293,6.7,1.433,7.993-.8Z" transform="translate(0 0)" fill="#de8e68"/>
  <path id="Path_2988" data-name="Path 2988" d="M96.705,40.848c0,2.25-9.04,2.424-9.04,0V27.175h9.04Z" transform="translate(0 0)" fill="#d37c59"/>
  <path id="Path_2989" data-name="Path 2989" d="M89.838,35.31c4.945,0,8.954-7.091,8.954-15.838S94.782,3.635,89.838,3.635s-8.954,7.09-8.954,15.837S84.893,35.31,89.838,35.31Z" transform="translate(0 0)" fill="#de8e68"/>
  <path id="Path_2990" data-name="Path 2990" d="M98.183,24.06a2.337,2.337,0,1,0-2.347-2.338,2.343,2.343,0,0,0,2.347,2.338Z" transform="translate(0 0)" fill="#de8e68"/>
  <path id="Path_2991" data-name="Path 2991" d="M128.7,1.385c-6.78,0-12.344,4.846-19.646,4.846C103.833,6.231,98.792,0,91.489,0,82.1,0,79.146,5.02,79.146,8.481c0,2.77,1.738,5.885,2.26,5.885a14.12,14.12,0,0,1,1.39-4.327c.348,1.212,7.65,9.693,14.083,9.693v.048a2.356,2.356,0,0,1,3.318.741,2.343,2.343,0,0,1-3.318,3.143v5.068h1.739c2.26,0,3.3-.865,6.78-.865,6.085,0,14.6,7.443,25.036,7.443,11.3,0,15.994-8.482,15.994-18,0-12.636-12-15.924-17.733-15.924Z" transform="translate(0 0)" fill="#20272b"/>
  <path id="Path_2992" data-name="Path 2992" d="M114.96,114.756V174.99L94.3,178.115l-18.478-60.8c6.105,1.078,29.228,1.944,39.138-2.557Z" transform="translate(0 0)" fill="#74d5de"/>
  <path id="Path_2993" data-name="Path 2993" d="M10.157,23.6l-3.116-3.18a.5.5,0,0,1,0-.693l.678-.692a.474.474,0,0,1,.678,0l2.1,2.143,4.5-4.59a.473.473,0,0,1,.677,0l.678.693a.5.5,0,0,1,0,.692L10.834,23.6a.473.473,0,0,1-.677,0Z" transform="translate(0 0)" fill="#47bbd0"/>
</svg>
