<svg id="Group_7344" data-name="Group 7344" xmlns="http://www.w3.org/2000/svg" width="157" height="177.925" viewBox="0 0 157 177.925">
  <path id="Path_2956" data-name="Path 2956" d="M128.076,22.265c16.31,6.84,28.362,25.577,28.907,44.047.512,18.5-10.487,36.7-22.166,52.377-11.645,15.645-23.968,28.74-39.122,34.492-15.185,5.748-33.23,4.152-46.168-3.877-12.9-8-20.667-22.452-29.283-36.738C11.63,98.316,2.234,84.2.361,67.365c-1.907-16.8,3.746-36.391,16.719-43.807s33.23-2.652,53.658-2.823S111.733,15.465,128.076,22.265Z" transform="translate(0 -1.075)" fill="#47bbd0" opacity="0.1"/>
  <path id="Path_2957" data-name="Path 2957" d="M41.992,70.748c.132,2.66,0,103.417,0,103.417H49.03L59.795,107.95c.136-2.146,2.1-25.879,2.1-25.879L49.5,69.358l-7.511,1.39Z" transform="translate(0 -1.075)" fill="#56cad8"/>
  <path id="Path_2958" data-name="Path 2958" d="M70.436,70.03S78.5,121.565,78.5,123.663,65.3,173.3,65.3,173.3H58.523l5.762-54.814L44.529,72.119" transform="translate(0 -1.075)" fill="#74d5de"/>
  <path id="Path_2959" data-name="Path 2959" d="M36.88,50.533c-.368.534-2.682,5.925-2.507,8.047.268,3.246,2.5,5.042,6.313,7.012,1.1,0,2.267-12.655,2.267-12.655l-3.431-2.4H36.879Z" transform="translate(0 -1.075)" fill="#de8e68"/>
  <path id="Path_2960" data-name="Path 2960" d="M44.529,36.454c-5.137,3.965-9.494,11.768-8.647,13.2.406.672,2.523,1.87,4.94,2.957" transform="translate(0 -1.075)" fill="#fcc486"/>
  <path id="Path_2961" data-name="Path 2961" d="M65.506,15.322C67,9.212,64.306,3.306,59.486,2.13s-9.936,2.823-11.43,8.933,1.2,12.017,6.019,13.193,9.936-2.824,11.43-8.934Z" transform="translate(0 -1.075)" fill="#de8e68"/>
  <path id="Path_2962" data-name="Path 2962" d="M56.214,26.611c11.425,0,16.092,40.924,14.218,43.42-2.558,3.4-20.854,6.146-28.436.718-2.917-2.08-3.36-44.138,14.218-44.138Z" transform="translate(0 -1.075)" fill="#fed385"/>
  <path id="Path_2963" data-name="Path 2963" d="M41.992,174.165V179H58.523v-2.731l-9.493-2.1m9.493-.862V179H75.837v-2.216L65.305,173.3" transform="translate(0 -1.075)"/>
  <path id="Path_2964" data-name="Path 2964" d="M72.418,47.915A56.638,56.638,0,0,1,75.9,53.168c.773-.66,25.624-21.472,26.033-21.754a1.479,1.479,0,0,1,1.391-.071,1.09,1.09,0,0,1,.38,1.4c-.219.406-3.309,3.12-3.309,3.12.252.315,1.542,3.581-.11,5.115a3.025,3.025,0,0,1-3.621.745c-.813.879-20.234,22.318-23.622,22.318-1.568,0-6.947-5.512-9.372-9.665" transform="translate(0 -1.075)" fill="#de8e68"/>
  <path id="Path_2965" data-name="Path 2965" d="M55.247,38.781c0,6.7,5.28,16.029,7.109,16.029s10.968-6.7,10.968-8.319S66.215,32.9,60.122,32.9c-2.438,0-4.875,2.638-4.875,5.884Z" transform="translate(0 -1.075)" fill="#fed892"/>
  <path id="Path_2966" data-name="Path 2966" d="M54.638,12c3.5.027,9.859-6.835,9.859-7.1,0-.61-1.08-3.825-7.35-3.825-4.48,0-11.526,3.133-11.526,13.421,0,5.3-2.073,10.957-2.073,13.513,0,3.886,3.134,6.335,8.084,6.335,2.39,0,5.985-1.177,5.985-3.109,0-2.824,2.9-12-2.64-14" transform="translate(0 -1.075)" fill="#20272b"/>
  <path id="Path_2967" data-name="Path 2967" d="M55.608,16.956a2.08,2.08,0,0,1-1.115.333,2.488,2.488,0,0,1-2.29-2.648A2.479,2.479,0,0,1,54.493,12a2.035,2.035,0,0,1,.695.122" transform="translate(0 -1.075)" fill="#de8e68"/>
  <path id="Path_2968" data-name="Path 2968" d="M128.142,71.7a13.677,13.677,0,1,0-13.694-13.677A13.685,13.685,0,0,0,128.142,71.7Zm0,27.354a9.77,9.77,0,1,0-9.781-9.769,9.775,9.775,0,0,0,9.781,9.769Z" transform="translate(0 -1.075)" fill="#d3d3d3"/>
  <path id="Path_2969" data-name="Path 2969" d="M131.506,85.422,124.421,89.5a.367.367,0,0,0,.033.66l1.625.68,4.392-3.864a.092.092,0,0,1,.131.127l-3.682,4.479v1.229a.367.367,0,0,0,.65.24l.97-1.179,1.9.8a.368.368,0,0,0,.5-.278l1.1-6.593a.367.367,0,0,0-.544-.379Z" transform="translate(0 -1.075)" fill="#b4b8bf"/>
  <path id="Path_2970" data-name="Path 2970" d="M128.147,36.541a17.1,17.1,0,1,0-17.123-17.1A17.113,17.113,0,0,0,128.147,36.541Z" transform="translate(0 -1.075)" fill="#47bbd0" stroke="rgba(0,0,0,0)" stroke-width="1"/>
  <path id="Path_2971" data-name="Path 2971" d="M133.186,52.23,122.56,58.353a.55.55,0,0,0,.05.99l2.438,1.02,6.586-5.8a.137.137,0,0,1,.2.19l-5.523,6.72v1.843a.551.551,0,0,0,.975.362l1.456-1.77,2.856,1.195a.552.552,0,0,0,.757-.416L134,52.8a.551.551,0,0,0-.817-.568Z" transform="translate(0 -1.075)" fill="#81868c"/>
  <path id="Path_2972" data-name="Path 2972" d="M124.658,18.7h-1.834a.55.55,0,0,0-.551.55v5.5a.551.551,0,0,0,.551.55h1.834a.55.55,0,0,0,.55-.55v-5.5a.55.55,0,0,0-.55-.55Zm-.917,5.678a.552.552,0,1,1,.552-.551.551.551,0,0,1-.552.551Zm7.336-8.942c0,.971-.6,1.516-.763,2.165h2.332a1.369,1.369,0,0,1,1.366,1.33,1.659,1.659,0,0,1-.446,1.127l0,0a1.911,1.911,0,0,1-.213,1.82,1.808,1.808,0,0,1-.375,1.711,1.218,1.218,0,0,1-.141,1.022c-.468.672-1.628.681-2.609.681h-.065a6.589,6.589,0,0,1-2.741-.726,3.585,3.585,0,0,0-1.207-.37.276.276,0,0,1-.27-.275v-4.9a.274.274,0,0,1,.081-.195c.908-.9,1.3-1.845,2.043-2.59a2.776,2.776,0,0,0,.583-1.349c.1-.423.315-1.323.777-1.323.551,0,1.651.183,1.651,1.865Z" transform="translate(0 -1.075)" fill="#fff"/>
</svg>
