<svg xmlns="http://www.w3.org/2000/svg" width="247.19" height="231.054" viewBox="0 0 247.19 231.054">
  <g id="Group" transform="translate(-48 -148.484)">
    <path id="Path_24240" data-name="Path 24240" d="M-7342.08-10058.9h24.16l7.348,7.224,6.85,6.85-1,6.975-3.611,4.607,2.366,12.7,2.242,2.864,3.985,1.246-4.982,20.026h-19.515l-10.2-6.639,6.8-15.542,1.457-1.956-1.457-1.605s-10.111-1.231-12.793-13.3A85.984,85.984,0,0,1-7342.08-10058.9Z" transform="translate(7505 10278.557)" fill="#de8e68"/>
    <path id="Path" d="M7.321,80.461S-10.892,24.683,40.26,30.415,66.972,15.361,86.3,2.462,162.582,29.693,138.755,68.4s38.078,3.3,50.991,61.505c7.969,35.92-11.8,62.357-28.112,77.344" transform="translate(94.265 149.557)" fill="none" stroke="#c7eaf1" stroke-width="2"/>
    <path id="Shape" d="M168.261,98.757c0-.287-7.089-9.005-7.089-9.005l-17.627-.479s-28.7,2.122-41.818-21.191S85.051,29.225,85.051,29.225l2.427,25.9L6.359,47.282S.022,41.314-.2,35.271,16.309-12.7,16.309-12.7s1.841-7.592,5.378-10.981,7-6.853,15.77-6.19,10.908,3.685,16.8,5.233,8.251,3.979,7.81,6.411a6.494,6.494,0,0,1-2.5,3.832L58.682,2.994,40.847,5.72l-.59,16.433,9.728,5.233,39.639-17.4L144.473,43.8s38.065-11.659,42.663,0,5.458,24.878,2.968,37.619-4.982,16.095-9.389,18.873a7.21,7.21,0,0,1-3.876.973A17.855,17.855,0,0,1,168.261,98.757Z" transform="translate(70.786 260.063)" fill="#de8e68"/>
    <g id="Group_5295" data-name="Group 5295" transform="translate(70.785 230.123)">
      <path id="Path-2" data-name="Path" d="M11.3,0c1.58,2.572,3.168,5.138,4.808,7.672,1.011,1.561,2.852,3.787.894,5.419a3.988,3.988,0,0,1-2.209.817,3.551,3.551,0,0,1-3.345-1.272L7.628,6.315A5.857,5.857,0,0,0,0,4.1" transform="translate(25.506 13.984)" fill="none" stroke="#20272b" stroke-linecap="round" stroke-linejoin="round" stroke-width="2"/>
      <path id="Path-3" data-name="Path" d="M14.412,8.312c1,2.37.321,3.9-.845,4.667A4.335,4.335,0,0,1,7.756,11.8L0,0" transform="translate(36.815 13.999)" fill="none" stroke="#000" stroke-width="2"/>
      <path id="Path-4" data-name="Path" d="M43.367,10.552c2.822,3.433,6.383,9.808,8.353,12.469s5.015,1.057,5.015,1.057c2.474-1.332,2.054-3.542.973-6.225A29.447,29.447,0,0,0,47,4.013C33.853-4.879,20.368,1.681,16.355,17.03l-15.869,44A14.984,14.984,0,0,0,14.993,79.794H60.658l26.63,68.31" transform="translate(0)" fill="none" stroke="#20272b" stroke-linecap="round" stroke-linejoin="round" stroke-width="2"/>
      <path id="Path-5" data-name="Path" d="M18.566,13.66c3.269-1.133,3.119-6.348-1.52-8.108C11.922,3.607,2.822.855.537.169A.093.093,0,0,0,.488.15C.327.1.215.06.128.041L0,0" transform="translate(41.106 1.172)" fill="none" stroke="#20272b" stroke-linecap="round" stroke-linejoin="round" stroke-width="2"/>
      <g id="Group-2" data-name="Group" transform="translate(54.422 29.619)">
        <path id="Path_2621" data-name="Path 2621" d="M-8252.822-20489.479h-11.021l-7.62-20.248s3.34-54.762,1.069-61.125-25.748-15.145-25.748-15.145-4.484-14.131,18.954-18.545,35.23-3.238,35.23-3.238-10.2,8.275,4.826,15.3c14.684.484,20.2-13.166,20.2-13.166s24.3,5.113,31.892,11.988c14.8,13.4,23.1,26.121,24.979,47.453s-4.57,33.787-6.633,35.936-3.137,3.313-6.273,4.121-61.591,16.664-61.591,16.664" transform="translate(8296.485 20608.002)" fill="#fed385"/>
        <path id="Path_2622" data-name="Path 2622" d="M-8171.578-20536.645s11.069-8.623,21.67-10.139,14.1,5.594,14.1,5.594,3.846,22.254,2.563,29.242-4.894,18.758-7.34,20.273-6.059,3.494-6.059,3.494l-34.02-13.863s-13.748-11.186-18.873-16.311-14.564-14.449-14.564-14.449l-3.421-2.732s1.75,2.813-.424,4.666-7.105-2.387-8.855-3.551-4.721-6.1-2.971-13.363,3.713-8.221,5.41-8.807-1.433-1.59-1.433-1.59l-8.857-2.119s-2.81-4.668,0-6.262,5.729-1.271,9.493,0,9.917.9,23.918,13a307.041,307.041,0,0,0,30.492,22.645s3.181,1.008,1.7-2.016S-8171.578-20536.645-8171.578-20536.645Z" transform="translate(8269.974 20590.375)" fill="#de8e68"/>
        <path id="Path-6" data-name="Path" d="M98.171,6.782a200.573,200.573,0,0,0-46.124,6.173" transform="translate(-44.584 -6.782)" fill="none" stroke="#20272b" stroke-linecap="round" stroke-linejoin="round" stroke-width="2"/>
        <path id="Path-7" data-name="Path" d="M19.091,14.346C16.231,10.908,8.4,8.96,3.29,8.017A4.032,4.032,0,0,1,.021,4.44,4.108,4.108,0,0,1,.22,2.7,4.062,4.062,0,0,1,4.461.021C13.179.9,22.17,3.647,28.82,9.556c0,0,32.237,24.6,36.087,27,1.588.964,3.07-.174,1.994-1.689l-.338-.578a51.958,51.958,0,0,0-6.688-9.056" transform="translate(33.899 22.683)" fill="none" stroke="#20272b" stroke-linecap="round" stroke-linejoin="round" stroke-width="2"/>
      </g>
    </g>
    <path id="Path-8" data-name="Path" d="M0,5.209S6.236,4.452,8.571,0L6.536,11.418S31.343,2.972,35.893,1.883c0,0,1.466,9.451,7.3,11.987l6.021-7.655S56.764,8.121,54.7,18.408,24.072,37.293,19.228,37.095,9.17,33.915,3.83,17.9Z" transform="translate(97.428 264.332)" fill="#353642"/>
    <path id="Path-9" data-name="Path" d="M6.426.13s-4.416-1-5.59,2.536-2.4,9.162,6.043,9.494,3.484-1.327,3-4.059S6.426.13,6.426.13Z" transform="translate(235.901 366.062)" fill="#20272b"/>
    <path id="Path-10" data-name="Path" d="M9.524,1.591S4.759-2.021.469,1.64A2.6,2.6,0,0,0,0,2.185" transform="translate(165.34 299.986)" fill="none" stroke="#20272b" stroke-linecap="round" stroke-linejoin="round" stroke-width="2"/>
    <g id="Group-3" data-name="Group" transform="translate(94.66 238.763)" opacity="0.77">
      <path id="Path-11" data-name="Path" d="M20.68,17.149a4.332,4.332,0,0,0,5.811,1.171c1.152-.763,1.828-2.283.855-4.631.177.259.338.488.5.7,1.967,2.673,5.015,1.062,5.015,1.062,2.474-1.332,2.057-3.542.975-6.228A34.182,34.182,0,0,0,29.7,1.729C30.8.7,32.114-.347,33.5.111c1.49.5,1.907,2.365,2.076,3.923.079.725.158,1.441.237,2.166L37,16.868A81.041,81.041,0,0,0,38.661,27.46a31.175,31.175,0,0,0,1.847,5.449,21.283,21.283,0,0,0,4.561,6.538,41.467,41.467,0,0,0,6.239-7.9,8.99,8.99,0,0,1,6.16,7.767v.09c.676,6.378-5.465,11.17-10.625,14.117a102.232,102.232,0,0,1-19.133,8.127c-2.692.883-6.19,1.635-9.031.714A6.713,6.713,0,0,1,17.784,62c-2.833-1.389-4.729-4.3-6.209-6.963C4.492,42.305,1.55,27.681,0,13.2c2.121-.293,4.236-.608,6.643-1.044.666-.12,1.634-.31,2.6-.517a.034.034,0,0,0,.019.03L12.777,17.5l.289.485a3.534,3.534,0,0,0,3.345,1.272,3.915,3.915,0,0,0,2.207-.817c1.956-1.635.12-3.852-.894-5.413" transform="translate(0 0)" fill="none" stroke="#20272b" stroke-linecap="round" stroke-linejoin="round" stroke-width="2"/>
      <g id="Group-4" data-name="Group" transform="translate(0 0)">
        <path id="Path-12" data-name="Path" d="M20.68,17.149a4.332,4.332,0,0,0,5.811,1.171c1.152-.763,1.828-2.283.855-4.631.177.259.338.488.5.7,1.967,2.673,5.015,1.062,5.015,1.062,2.474-1.332,2.057-3.542.975-6.228A34.182,34.182,0,0,0,29.7,1.729C30.8.7,32.114-.347,33.5.111c1.49.5,1.907,2.365,2.076,3.923.079.725.158,1.441.237,2.166L37,16.868A81.041,81.041,0,0,0,38.661,27.46a31.175,31.175,0,0,0,1.847,5.449,21.283,21.283,0,0,0,4.561,6.538,41.467,41.467,0,0,0,6.239-7.9,8.99,8.99,0,0,1,6.16,7.767v.09c.676,6.378-5.465,11.17-10.625,14.117a102.232,102.232,0,0,1-19.133,8.127c-2.692.883-6.19,1.635-9.031.714A6.713,6.713,0,0,1,17.784,62c-2.833-1.389-4.729-4.3-6.209-6.963C4.492,42.305,1.55,27.681,0,13.2c3.1-.428,6.19-.9,9.241-1.561a.034.034,0,0,0,.019.03L12.777,17.5l.289.485a3.534,3.534,0,0,0,3.345,1.272,3.915,3.915,0,0,0,2.207-.817c1.956-1.635.12-3.852-.894-5.413" transform="translate(0 0)" fill="#47bbd0"/>
      </g>
    </g>
    <path id="Path-13" data-name="Path" d="M9.184.878S.136-2.1,0,2.9" transform="translate(165.106 305.957)" fill="none" stroke="#20272b" stroke-linecap="round" stroke-linejoin="round" stroke-width="2"/>
    <path id="Path-14" data-name="Path" d="M17.922,52.871.178,7.413A5.966,5.966,0,0,1,5.967,0H76.446A7.045,7.045,0,0,1,83.3,5.4l19.424,45.447a5.966,5.966,0,0,1-5.8,7.356H24.757a7.042,7.042,0,0,1-6.835-5.332Z" transform="translate(75.381 304.917)" fill="#fff" stroke="#707070" stroke-width="2" opacity="0.54"/>
    <path id="Path-15" data-name="Path" d="M12.239,21.072a3.385,3.385,0,0,1,.91,3.269,2.546,2.546,0,0,1-3.234,1.836C5.447,24.632,1.423,22.009.443,17.549a21.669,21.669,0,0,1-.3-6.865A28.192,28.192,0,0,1,1.388,4.252c1.09-3.1,4.427-5.261,7.666-3.768" transform="translate(164.995 293.432)" fill="none" stroke="#20272b" stroke-linecap="round" stroke-linejoin="round" stroke-width="2"/>
    <path id="Path-16" data-name="Path" d="M17.922,52.871.178,7.413A5.966,5.966,0,0,1,5.967,0H76.446A7.045,7.045,0,0,1,83.3,5.4l19.424,45.447a5.966,5.966,0,0,1-5.8,7.356H24.757a7.042,7.042,0,0,1-6.835-5.332Z" transform="translate(75.381 304.917)" fill="#47bbd0" stroke="#707070" stroke-width="2"/>
    <path id="Path-17" data-name="Path" d="M17.922,52.871.178,7.413A5.966,5.966,0,0,1,5.967,0H76.446A7.045,7.045,0,0,1,83.3,5.4l19.424,45.447a5.966,5.966,0,0,1-5.8,7.356H24.757a7.042,7.042,0,0,1-6.835-5.332Z" transform="translate(75.381 304.917)" fill="none" stroke="#20272b" stroke-linecap="round" stroke-linejoin="round" stroke-width="2"/>
    <path id="Path-18" data-name="Path" d="M16.534,48.793.164,6.838A5.506,5.506,0,0,1,5.506,0H70.525a6.5,6.5,0,0,1,6.32,4.98L94.769,46.91A5.506,5.506,0,0,1,89.416,53.7H22.838a6.5,6.5,0,0,1-6.3-4.9Z" transform="translate(79.365 307.164)" fill="#47bbd0"/>
    <g id="Group-5" data-name="Group" transform="translate(49 238.755)">
      <path id="Path-19" data-name="Path" d="M0,0,12.467,28.848" transform="translate(186.05 110.621)" fill="none" stroke="#20272b" stroke-linecap="round" stroke-linejoin="round" stroke-width="2"/>
      <path id="Path-20" data-name="Path" d="M245.19.49H0" transform="translate(0 138.979)" fill="none" stroke="#20272b" stroke-linecap="square" stroke-linejoin="round" stroke-width="2"/>
      <path id="Path-21" data-name="Path" d="M6.759,0A4.685,4.685,0,0,1,0,.147" transform="translate(122.475 9.267)" fill="none" stroke="#20272b" stroke-linecap="round" stroke-linejoin="round" stroke-width="2"/>
      <path id="Path-22" data-name="Path" d="M0,1.729C1.1.7,2.414-.347,3.795.111c1.49.5,1.907,2.365,2.076,3.923q.717,6.424,1.43,12.834c.6,5.449,1.242,11.028,3.506,16.035a21.282,21.282,0,0,0,4.561,6.538" transform="translate(75.36 0)" fill="none" stroke="#20272b" stroke-linecap="round" stroke-linejoin="round" stroke-width="2"/>
      <path id="Path-23" data-name="Path" d="M38.824,7.857v-.09A8.99,8.99,0,0,0,32.665,0a41.467,41.467,0,0,1-6.239,7.9A42.625,42.625,0,0,1,3.367,19.721a47.176,47.176,0,0,0,1.88,4.8,6.619,6.619,0,0,1,.169,5.018C4.5,31.515,1.874,31.256.049,30.818H0" transform="translate(64.302 31.552)" fill="none" stroke="#20272b" stroke-linecap="round" stroke-linejoin="round" stroke-width="2"/>
      <path id="Path-24" data-name="Path" d="M9.241,0C6.19.657,3.1,1.133,0,1.561,1.55,16.044,4.482,30.668,11.576,43.4c1.479,2.662,3.375,5.574,6.209,6.963a6.712,6.712,0,0,0,.894.357c2.841.934,6.34.169,9.031-.714a102.106,102.106,0,0,0,19.133-8.127c5.146-2.95,11.287-7.74,10.625-14.117a9.331,9.331,0,0,0-.428-2.065" transform="translate(45.665 11.643)" fill="none" stroke="#20272b" stroke-linecap="round" stroke-linejoin="round" stroke-width="2"/>
    </g>
    <path id="Path-25" data-name="Path" d="M0,10.76A9.364,9.364,0,0,0,8.268,17.9a4.934,4.934,0,0,1,1.024-2.141c2.179-2.569,3.108,2.25,10.08-1.21C29.033,9.747,32.7,12.5,32.7,12.5c.321.24.272,2.452.327,2.855.272,2.3.518,4.582.787,6.876.163,1.4.324,2.79.477,4.179a6.772,6.772,0,0,1,.436-.684c.88-3.114,2.452-6.792,5.841-5.209a4.847,4.847,0,0,1,1.744,1.436c2.248,2.953.545,5.806-1.806,7.917a12.194,12.194,0,0,1-1.964,1.757c.387.8,1.967,3.98,1.967,3.991.163.321,5.686-5.928,6.1-6.609a15.862,15.862,0,0,0,.975-5.206C47.67,16.5,44.7,7.989,38.775,3.8c-1.468-1.038-1-2.038-1.09-3.449a.379.379,0,0,0-.678-.2c-1.855,2.136-6.448,1.923-6.448,1.923C14.616-1.922,9.257,5.167,6.04,6.431A6.034,6.034,0,0,1,1.953,6.5,2.452,2.452,0,0,1,.283,8.406l.082.738A2.452,2.452,0,0,1,0,10.76Z" transform="translate(154.928 210.749)" fill="#47bbd0"/>
    <path id="Path-26" data-name="Path" d="M.47.49H.481" transform="translate(161.115 231.567)" fill="#3fbdf1" stroke="#707070" stroke-width="2"/>
    <path id="Path-27" data-name="Path" d="M8.606,21.29A9.364,9.364,0,0,1,.338,14.146,12.611,12.611,0,0,1,0,11.918L.125,11.9a1.844,1.844,0,0,0,.5-.109A2.452,2.452,0,0,0,2.3,9.888a2.308,2.308,0,0,0,.03-.741L1.918,5.54A6.822,6.822,0,0,0,8,6.431c3.2-1.253,8.568-8.342,24.519-4.359,0,0,3.6.212,5.449-1.923a.379.379,0,0,1,.678.2A4.188,4.188,0,0,0,40.734,3.8c5.92,4.2,8.895,12.7,8.8,20.01a17.121,17.121,0,0,1-2.591,8.6c-.411.681-5.934,6.931-6.1,6.609,0,0-1.58-3.19-1.967-3.991l-.093-.177.177-.117a18.339,18.339,0,0,0,1.88-1.463c2.348-2.111,4.054-4.964,1.806-7.917a4.847,4.847,0,0,0-1.744-1.436c-3.4-1.583-4.961,2.1-5.841,5.209a8.464,8.464,0,0,0-.313,1.825c-.041-.381-.082-.749-.123-1.131-.153-1.389-.313-2.779-.477-4.179-.272-2.294-.529-4.58-.787-6.876-.041-.392,0-2.615-.327-2.855,0,0-3.67-2.757-13.327,2.049-6.972,3.46-7.9-1.362-10.08,1.21A4.934,4.934,0,0,0,8.609,21.3a5.449,5.449,0,0,0-.1.766.327.327,0,0,0,0,.1c-.033.564-.044,1.125-.057,1.675-.052,5.31.531,10.856,2.615,15.788,2.534,5.977,9.238,11.873,16.21,9.086A22.518,22.518,0,0,0,33.2,44.94" transform="translate(154.601 207.373)" fill="none" stroke="#20272b" stroke-linecap="round" stroke-linejoin="round" stroke-width="2"/>
    <ellipse id="Oval" cx="1.324" cy="1.602" rx="1.324" ry="1.602" transform="translate(165.705 238.995) rotate(-18.5)" fill="#20272b"/>
    <ellipse id="Oval-2" data-name="Oval" cx="1.324" cy="1.602" rx="1.324" ry="1.602" transform="translate(176.078 238.663) rotate(-18.5)" fill="#20272b"/>
    <g id="Group-6" data-name="Group" transform="translate(162.749 233.58)">
      <path id="Path-28" data-name="Path" d="M11.636,8.414S8.184,10.373,7.974,8.34c-.065-.627-.91-6.765-.91-6.765A5.929,5.929,0,0,0,0,.8" transform="translate(0 1.084)" fill="none" stroke="#20272b" stroke-linecap="round" stroke-linejoin="round" stroke-width="2"/>
      <path id="Path-29" data-name="Path" d="M0,.94S5.574-1.844,9.263,2.169" transform="translate(10.859 0)" fill="none" stroke="#20272b" stroke-linecap="round" stroke-linejoin="round" stroke-width="2"/>
      <path id="Path-30" data-name="Path" d="M2.462,0,3.1,3.286A8.527,8.527,0,0,0,.073,10.622c.371,2.49,2.408,4.808,4.5,6.113,3.493,2.179,8.138,2.008,11.9.621a20.269,20.269,0,0,0,9.159-7.1A12.3,12.3,0,0,0,27.741,5.13V5.1" transform="translate(13.508 23.196)" fill="none" stroke="#20272b" stroke-linecap="round" stroke-linejoin="round" stroke-width="2"/>
      <path id="Path-31" data-name="Path" d="M0,0,1.248,5.934" transform="translate(16.61 26.481)" fill="none" stroke="#20272b" stroke-linecap="round" stroke-linejoin="round" stroke-width="2"/>
      <path id="Path-32" data-name="Path" d="M24.157,0l1.885,12.518a5.176,5.176,0,0,0,5.124,4.4A119.356,119.356,0,0,1,48.482,21.07C70.6,28.2,84.206,48.123,88.05,70.38a75.019,75.019,0,0,1-.289,28.363c-1.142,5.217-2.792,11.077-6.626,14.984-4.977,5.095-12.616,3-18.5.695-18.261-7.1-33.449-19.738-46.564-34.2A104.758,104.758,0,0,0,0,66.28" transform="translate(10.099 11.375)" fill="none" stroke="#20272b" stroke-linecap="round" stroke-linejoin="round" stroke-width="2"/>
    </g>
    <path id="Path-33" data-name="Path" d="M4.765,17.292A4.652,4.652,0,0,1,.471,13.317C-.439,8.79-.679,1.788,5.961.26c8.3-1.907,14.676,7.127,17.8,12.837,1.052,1.907-.139,4.359-2.1,4.359Z" transform="translate(97.169 329.274)" fill="#fff"/>
    <ellipse id="Oval-3" data-name="Oval" cx="3.83" cy="5.648" rx="3.83" ry="5.648" transform="translate(95.226 318.408) rotate(-33.64)" fill="#fff"/>
    <path id="Path-34" data-name="Path" d="M49.877,16.97c-.128.019-.272.038-.4.068H49.43l-19.378-.1L.975,16.787H.646A6.266,6.266,0,0,1,0,16.738,8.426,8.426,0,0,0,7.44,8.851a2.88,2.88,0,0,0,0-.308V8.385A8.429,8.429,0,0,0,.695.161C.5.112.278.082.068.052.4.022.725,0,1.043,0L25.609.131,30.131.15l6.1.03a8.424,8.424,0,0,1,7.658,8.364,7.748,7.748,0,0,1-.09,1.182,8.424,8.424,0,0,1-8.3,7.211h14.76c-.85,0-.613,0-.384.033Z" transform="translate(191.126 349.372)" fill="#fff" stroke="#707070" stroke-width="2"/>
    <path id="Path-35" data-name="Path" d="M17.087,10.162a5.931,5.931,0,0,0,4.225,1.749H7.042c-2.724,0-4.212-.665-5.3-1.749A5.994,5.994,0,0,1,0,5.95C0,2.681,2.681,0,7.042,0h14.27A5.95,5.95,0,0,0,17.1,10.162Z" transform="translate(184.609 366.312)" fill="#47bbd0"/>
    <path id="Path-36" data-name="Path" d="M22.372,8.514a8.214,8.214,0,0,1-.855,3.626A7.917,7.917,0,0,1,19.9,14.425a8.394,8.394,0,0,1-4.013,2.215,8.5,8.5,0,0,1-1.907.218c.131-.03.272-.049.4-.068-.229-.022-.466-.03.387-.03H0A8.424,8.424,0,0,0,8.3,9.546a7.748,7.748,0,0,0,.09-1.182A8.424,8.424,0,0,0,.733,0L8.7.041l5.323.03a8.418,8.418,0,0,1,8.347,8.443Z" transform="translate(226.452 349.552)" fill="#47bbd0"/>
    <g id="Group-7" data-name="Group" transform="translate(184.609 349.375)">
      <path id="Path-37" data-name="Path" d="M57.892,8.688a8.413,8.413,0,0,1-8.445,8.35L.975,16.787c-.324,0-.648-.025-.975-.057a8.4,8.4,0,0,0,7.453-8.3A8.4,8.4,0,0,0,.087.049,8.99,8.99,0,0,1,1.062,0L49.534.251a8.415,8.415,0,0,1,8.358,8.437Z" transform="translate(6.323 0)" fill="none" stroke="#20272b" stroke-linecap="round" stroke-linejoin="round" stroke-width="2"/>
      <path id="Path-38" data-name="Path" d="M43.859,8.391a8.413,8.413,0,0,1-8.4,8.4H.975A9.751,9.751,0,0,1,0,16.733,8.4,8.4,0,0,0,7.409,8.392,8.4,8.4,0,0,0,0,.052C.324.022.651,0,.975,0H35.463a8.415,8.415,0,0,1,8.4,8.391Z" transform="translate(6.372 0.147)" fill="none" stroke="#20272b" stroke-linecap="round" stroke-linejoin="round" stroke-width="2"/>
      <path id="Path-39" data-name="Path" d="M0,5.958a5.942,5.942,0,0,0,1.744,4.206c1.09,1.09,2.569,1.752,5.3,1.752H56.6c-.853,0-.621-.016-.39-.038a5.961,5.961,0,0,1,0-11.84C55.982.016,55.751,0,56.6,0H7.04C2.675,0,0,2.683,0,5.958Z" transform="translate(0 16.932)" fill="none" stroke="#20272b" stroke-linecap="round" stroke-linejoin="round" stroke-width="2"/>
      <path id="Path-40" data-name="Path" d="M0,5.958a5.972,5.972,0,0,0,5.958,5.958H40.184c.229,0,.46-.016.692-.038a5.961,5.961,0,0,1,0-11.84C40.644.016,40.413,0,40.184,0H5.958A5.974,5.974,0,0,0,0,5.958Z" transform="translate(15.338 16.932)" fill="none" stroke="#20272b" stroke-linecap="round" stroke-linejoin="round" stroke-width="2"/>
    </g>
    <path id="Path-41" data-name="Path" d="M18.725,4.354H3.436A3.607,3.607,0,0,1,.139,2.2,1.553,1.553,0,0,1,1.578,0H17.831a3.661,3.661,0,0,0,.894,4.353Z" transform="translate(125.741 322.453)" fill="#429caf"/>
    <path id="Path-42" data-name="Path" d="M11.171,2.787A1.575,1.575,0,0,1,9.6,4.359H1.285A3.666,3.666,0,0,1,.391,0H7.733a3.61,3.61,0,0,1,3.3,2.147,1.678,1.678,0,0,1,.139.64Z" transform="translate(143.181 322.445)" fill="#429caf"/>
    <path id="Path-43" data-name="Path" d="M7.346,5.815a1.635,1.635,0,0,1-.15.237c-1.09,1.49-3.457,1.635-5.3.289a5.7,5.7,0,0,1-.616-.526A3.666,3.666,0,0,1,.391,1.457a1.635,1.635,0,0,1,.15-.237c1.09-1.5,3.446-1.635,5.285-.3a5.5,5.5,0,0,1,.624.545,3.684,3.684,0,0,1,.9,4.351Z" transform="translate(143.181 320.991)" fill="#fff"/>
    <path id="Path-44" data-name="Path" d="M18.509,2.79a1.58,1.58,0,0,1-1.58,1.569H.885A3.648,3.648,0,0,0,0,0H15.071a3.6,3.6,0,0,1,3.3,2.155,1.58,1.58,0,0,1,.139.635Z" transform="translate(139.688 332.04)" fill="#429caf"/>
    <path id="Path-45" data-name="Path" d="M10.987,4.351H3.438A3.6,3.6,0,0,1,.139,2.2,1.607,1.607,0,0,1,0,1.569,1.566,1.566,0,0,1,1.569,0H10.1a3.623,3.623,0,0,1,.885,4.351Z" transform="translate(129.586 332.048)" fill="#429caf"/>
    <path id="Path-46" data-name="Path" d="M7.329,5.821a1.043,1.043,0,0,1-.139.24c-1.09,1.5-3.449,1.635-5.285.3a5.53,5.53,0,0,1-.627-.545A3.69,3.69,0,0,1,.384,1.453a1.809,1.809,0,0,1,.15-.24C1.624-.277,3.991-.421,5.828.928a5.176,5.176,0,0,1,.616.526,3.65,3.65,0,0,1,.885,4.367Z" transform="translate(133.244 330.579)" fill="#fff"/>
    <path id="Path-47" data-name="Path" d="M13.044,4.351H3.438A3.615,3.615,0,0,1,.139,2.2,1.561,1.561,0,0,1,1.58,0H12.15a3.676,3.676,0,0,0,.894,4.351Z" transform="translate(132.874 341.575)" fill="#429caf"/>
    <path id="Path-48" data-name="Path" d="M16.846,2.8a1.566,1.566,0,0,1-1.569,1.558h-14A3.686,3.686,0,0,1,.386,0H13.408a3.6,3.6,0,0,1,3.3,2.155,1.635,1.635,0,0,1,.139.646Z" transform="translate(144.639 341.567)" fill="#429caf"/>
    <path id="Path-49" data-name="Path" d="M7.338,5.814a1.809,1.809,0,0,1-.15.24c-1.09,1.5-3.446,1.635-5.285.3a5.746,5.746,0,0,1-.624-.545A3.686,3.686,0,0,1,.386,1.447a1.539,1.539,0,0,1,.147-.24C1.622-.283,3.99-.411,5.829.921a5.176,5.176,0,0,1,.616.526,3.687,3.687,0,0,1,.894,4.367Z" transform="translate(144.642 340.112)" fill="#fff"/>
    <ellipse id="Oval-4" data-name="Oval" cx="6.767" cy="8.11" rx="6.767" ry="8.11" transform="translate(110.979 267.21) rotate(-16.36)" fill="#fff"/>
  </g>
</svg>
