<svg id="Group_7343" data-name="Group 7343" xmlns="http://www.w3.org/2000/svg" width="160" height="179" viewBox="0 0 160 179">
  <path id="Path_2939" data-name="Path 2939" d="M130.523,19.143c16.622,6.966,28.9,26.05,29.459,44.86.522,18.844-10.687,37.376-22.589,53.346-11.867,15.934-24.425,29.271-39.87,35.129-15.474,5.854-33.864,4.228-47.05-3.949-13.15-8.146-21.061-22.867-29.842-37.417C11.852,96.6,2.277,82.223.368,65.076-1.575,47.964,4.185,28.012,17.406,20.459s33.865-2.7,54.684-2.874,41.778-5.369,58.433,1.558Z" transform="translate(0 0)" fill="#47bbd0" opacity="0.1"/>
  <path id="Path_2940" data-name="Path 2940" d="M72.01,164.054H67.144V167.4h4.865v-3.345Zm31.764,0H98.089V167.4h5.685Z" transform="translate(0)" fill="#de8e68"/>
  <path id="Path_2941" data-name="Path 2941" d="M97.879,88.392c.133,2.522,6.067,75.663,6.067,75.663H97.879L82.1,109.128s4.1-21.979,4.388-21.921C87.844,87.551,95.265,88.869,97.879,88.392Z" transform="translate(0 0)" fill="#56cad8"/>
  <path id="Path_2942" data-name="Path 2942" d="M89.027,87.76l-16.35,76.887H66.82s-.515-84.263,0-84.263c5.5,2.331,15.873,6.153,22.207,7.377Z" transform="translate(0)" fill="#74d5de"/>
  <path id="Path_2943" data-name="Path 2943" d="M102.076,45.906a40.442,40.442,0,0,1,8.032,7.282c1.564-1.166,19.421-16.016,19.783-16.838.706-.4,2.213,1.873,0,3.727,1.508-.057,10.417-.287,10.417,0s1.927,1.108-11.161,3.21c-1.736,2.1-17.456,20.622-20.012,20.622S96.162,53.78,95.723,51.965s6.353-6.059,6.353-6.059Z" transform="translate(0)" fill="#de8e68"/>
  <path id="Path_2944" data-name="Path 2944" d="M88.474,37.669c-4.083,3.8,3.395,15.27,5.513,15.767,2.69.65,8.833-4.453,10.149-7.989C104.728,43.785,91.831,34.554,88.474,37.669Z" transform="translate(0)" fill="#fed892"/>
  <path id="Path_2945" data-name="Path 2945" d="M81.148,32.127c-22.7,0-17.552,43.9-16.1,46.9S95.57,90.742,97.86,88.391,104.365,32.127,81.148,32.127Z" transform="translate(0)" fill="#fed892"/>
  <path id="Path_2946" data-name="Path 2946" d="M85.059,26.221H78.19v10c0,1.28,6.868,1.28,6.868,0v-10Z" transform="translate(0)" fill="#d37c59"/>
  <path id="Path_2947" data-name="Path 2947" d="M81.548,29.814c4.32,0,7.822-5.887,7.822-13.149s-3.5-13.149-7.822-13.149S73.726,9.4,73.726,16.666,77.228,29.814,81.548,29.814Z" transform="translate(0 0)" fill="#de8e68"/>
  <path id="Path_2948" data-name="Path 2948" d="M80.251.573c-3.95,0-9.176,1.912-12.973,1.912C63.844,2.485,57.606,0,54.305,0c-2.1,0-12.019.975-12.019,8.982,0,3.613,3.816,7.072,4.579,8.027s2.156,6.307,5.723,6.307c4.98,0,8.413-3.631,12.973-3.631,3.148,0,3.968.765,5.533.765a9.992,9.992,0,0,0,2.861-.574c0-.592-.114-5.542.573-6.345.954-1.147,13.106.554,13.106-3.478.859.764,1.66,4.013,1.66,4.682.553-.573,2.614-3.058,2.614-5.733C91.888,6.555,90.17.573,80.25.573Z" transform="translate(0 0)" fill="#20272b"/>
  <path id="Path_2949" data-name="Path 2949" d="M63.882,99.38c2.013,0,3.644-2.3,3.644-5.14S65.9,89.1,63.882,89.1s-3.644,2.3-3.644,5.141S61.87,99.38,63.882,99.38Z" transform="translate(0)" fill="#de8e68"/>
  <path id="Path_2950" data-name="Path 2950" d="M61.574,51.123c-.477,1.07-3.625,13.016-2.957,23.221a117.392,117.392,0,0,0,2.4,16.761c0,.8,5.837.478,5.837,0s-1.507-15-1.183-17.583,4.694-17.506,4.58-19.34-8.681-3.059-8.681-3.059Z" transform="translate(0 0)" fill="#de8e68"/>
  <path id="Path_2951" data-name="Path 2951" d="M70.14,38.4C64.93,36.732,58.77,48.64,59.36,50.7c.745,2.6,8.014,5.428,11.657,4.854,1.717-.286,3.4-15.786-.877-17.162Z" transform="translate(0)" fill="#fed892"/>
  <path id="Path_2952" data-name="Path 2952" d="M66.9,166.635v1.471L61.1,179h3.777l7.555-6.861v-5.5H66.9Zm31-.23v5.524h16.121V169.75L103.793,166.4H97.9Z" transform="translate(0)"/>
  <path id="Path_2953" data-name="Path 2953" d="M104.888,16.183l17.585,4.862V11.3Z" transform="translate(0)" fill="#47bbd0"/>
  <path id="Path_2954" data-name="Path 2954" d="M141.542,3.516H115.591a4,4,0,0,0-4,4V23.194a4,4,0,0,0,4,4h25.951a4,4,0,0,0,4-4V7.515a4,4,0,0,0-4-4Z" transform="translate(0)" fill="#47bbd0"/>
  <path id="Path_2955" data-name="Path 2955" d="M120.884,16.99a1.68,1.68,0,1,0-1.633-1.635,1.634,1.634,0,0,0,1.633,1.635Zm7.661,0a1.68,1.68,0,1,0-1.633-1.635A1.634,1.634,0,0,0,128.545,16.99Zm7.682,0a1.635,1.635,0,1,0-1.632-1.635A1.634,1.634,0,0,0,136.227,16.99Z" transform="translate(0 0)" fill="#fff"/>
</svg>
