<svg xmlns="http://www.w3.org/2000/svg" width="17.811" height="17.811" viewBox="0 0 17.811 17.811">
  <g id="Icon_feather-image" data-name="Icon feather-image" transform="translate(-3.75 -3.75)">
    <path id="Path_2936" data-name="Path 2936" d="M6.278,4.5H18.722A1.778,1.778,0,0,1,20.5,6.278V18.722A1.778,1.778,0,0,1,18.722,20.5H6.278A1.778,1.778,0,0,1,4.5,18.722V6.278A1.778,1.778,0,0,1,6.278,4.5Z" fill="none" stroke="#fff" stroke-linecap="round" stroke-linejoin="round" stroke-width="1.5"/>
    <path id="Path_2937" data-name="Path 2937" d="M13.167,11.833A1.333,1.333,0,1,1,11.833,10.5,1.333,1.333,0,0,1,13.167,11.833Z" transform="translate(-2.444 -2.444)" fill="none" stroke="#fff" stroke-linecap="round" stroke-linejoin="round" stroke-width="1.5"/>
    <path id="Path_2938" data-name="Path 2938" d="M21.722,19.444,17.278,15,7.5,24.778" transform="translate(-1.222 -4.278)" fill="none" stroke="#fff" stroke-linecap="round" stroke-linejoin="round" stroke-width="1.5"/>
  </g>
</svg>
